<svg width="60" height="50" viewBox="0 0 60 50" fill="none" xmlns="http://www.w3.org/2000/svg">
<path d="M7.51865 17.75L0 26.5L7.51865 35.25L15.0373 44H36.0418C50.8404 44 57.5236 43.5333 58.4784 42.6C60.5072 40.6167 60.5072 12.3833 58.4784 10.4C57.5236 9.46667 50.8404 9 36.0418 9H15.0373L7.51865 17.75ZM56.9269 26.5V41.0833L36.5191 41.4333L16.2307 41.6667L10.0249 34.55C6.5639 30.7 3.819 26.9667 3.819 26.5C3.819 26.0333 6.5639 22.3 10.0249 18.45L16.2307 11.3333L36.5191 11.5667L56.9269 11.9167V26.5Z" fill="black"/>
<path d="M25 19.9062C25 20.4395 26.3333 22.1728 27.9333 23.9062L30.7333 26.9728L27.6667 30.3062C23.5333 34.5728 25.4 36.4395 29.6667 32.3062L33 29.2395L36.3333 32.3062C40.6 36.4395 42.4667 34.5728 38.3333 30.3062L35.2667 26.9728L38.3333 23.6395C42.4667 19.3728 40.6 17.5062 36.3333 21.6395L33 24.7062L29.9333 21.9062C26.7333 18.9728 25 18.1728 25 19.9062Z" fill="black"/>
</svg>
